<svg width="29" height="25" viewBox="0 0 29 25" fill="none" xmlns="http://www.w3.org/2000/svg">
<path d="M13.0075 0.81271C8.50928 1.19794 4.56769 3.21227 2.17236 6.36372C-0.605309 10.0118 -0.729011 14.7645 1.85749 18.4915C3.22383 20.4547 5.21993 22.0653 7.5759 23.1049C9.58324 23.9914 11.7986 24.4787 13.8791 24.4973L14.6382 24.502L14.655 19.8931L14.6663 15.289H13.12H11.5737V13.8037V12.3185L13.1088 12.3092L14.6382 12.2953L14.6719 10.7405C14.7 9.32951 14.7113 9.15314 14.8237 8.81433C15.2567 7.53333 16.2856 6.67933 17.8432 6.32195C18.248 6.22912 18.4279 6.21984 19.6144 6.21984C20.3397 6.21519 21.1831 6.23376 21.4868 6.25697L22.0322 6.2941V7.63079V8.96749L20.6996 8.98606C19.367 8.99998 19.3613 8.99998 19.0689 9.12529C18.4504 9.39449 18.3773 9.61263 18.3773 11.1443V12.3185H20.1485C21.1213 12.3185 21.9197 12.3324 21.9197 12.351C21.9197 12.3742 21.8185 13.024 21.6948 13.7991C21.5711 14.5788 21.4699 15.2286 21.4699 15.2518C21.4699 15.2704 20.7727 15.289 19.9236 15.289H18.3773V19.675C18.3773 22.0885 18.3886 24.061 18.3998 24.061C18.5067 24.061 19.8449 23.6433 20.3509 23.453C22.0434 22.8125 23.3535 22.0421 24.703 20.9003C25.8782 19.9024 26.6035 19.0438 27.3514 17.7721C28.0148 16.6396 28.4703 15.3771 28.6783 14.0822C28.7683 13.5067 28.7683 11.7198 28.6783 11.1814C28.206 8.43838 26.8341 6.12701 24.5568 4.24728C22.3246 2.40932 19.5469 1.25828 16.3812 0.873047C15.6896 0.789503 13.6935 0.752373 13.0075 0.81271Z" fill="white"/>
</svg>
