<svg width="40" height="28" viewBox="0 0 40 28" fill="none" xmlns="http://www.w3.org/2000/svg">
<path d="M38.3711 4.288C37.9322 2.63254 36.6352 1.32904 34.9906 0.885854C32.0099 0.082031 20.0526 0.0820312 20.0526 0.0820312C20.0526 0.0820312 8.09511 0.082031 5.11446 0.885854C3.46987 1.32904 2.17288 2.63254 1.73405 4.288C0.93457 7.29038 0.93457 13.5515 0.93457 13.5515C0.93457 13.5515 0.93457 19.8127 1.73405 22.8151C2.17288 24.4704 3.46987 25.7739 5.11446 26.2172C8.09511 27.021 20.0526 27.021 20.0526 27.021C20.0526 27.021 32.0099 27.021 34.9906 26.2172C36.6352 25.7739 37.9322 24.4704 38.3711 22.8151C39.1705 19.8127 39.1705 13.5515 39.1705 13.5515C39.1705 13.5515 39.1705 7.29038 38.3711 4.288ZM16.142 19.2369V7.86608L26.1356 13.5515L16.142 19.2369Z" fill="white"/>
</svg>
